<svg width="455" height="495" viewBox="-5 -5 455 495" fill="none" xmlns="http://www.w3.org/2000/svg">
  <defs>
    <linearGradient id="customGradient" x1="60.8467" y1="45.9693" x2="460.8361" y2="460.6871" gradientUnits="userSpaceOnUse">
      <stop stop-color="#00A3F9"/>
      <stop offset="1" stop-color="#00F1EF"/>
    </linearGradient>
  </defs>
<path d="M80 248C39.1309 248 6 281.131 6 322C6 362.869 39.1309 396 80 396C120.869 396 154 362.869 154 322C154 281.131 120.869 248 80 248ZM80 248L78.5 173.983M138.533 88L222 57.3623M203.5 143.67L239.5 78.7825M217.961 170L285.135 173.5M134.415 139.5L164.394 155M282 76.4993L315 118.496M256 303.597L291.17 343M203.715 428L272.383 408.5M183 404.657L221 309.341M200 195.003L221.5 248.45M173 191.741L123.5 262.129M301.432 224.5L259.457 258M351 251.573L342.5 326.428M125.324 380.5L147.5 409.637M151.404 302.5L202.242 288M433 178C433 218.869 399.869 252 359 252C318.131 252 285 218.869 285 178C285 137.131 318.131 104 359 104C399.869 104 433 137.131 433 178ZM142 109C142 144.899 112.899 174 77 174C41.1015 174 12 144.899 12 109C12 73.1015 41.1015 44 77 44C112.899 44 142 73.1015 142 109ZM218 168.5C218 184.24 205.24 197 189.5 197C173.76 197 161 184.24 161 168.5C161 152.76 173.76 140 189.5 140C205.24 140 218 152.76 218 168.5ZM267 279C267 297.225 252.225 312 234 312C215.775 312 201 297.225 201 279C201 260.775 215.775 246 234 246C252.225 246 267 260.775 267 279ZM205 437.5C205 457.106 189.106 473 169.5 473C149.894 473 134 457.106 134 437.5C134 417.894 149.894 402 169.5 402C189.106 402 205 417.894 205 437.5ZM298 45C298 66.5391 280.539 84 259 84C237.461 84 220 66.5391 220 45C220 23.4609 237.461 6 259 6C280.539 6 298 23.4609 298 45ZM400 391C400 426.899 370.899 456 335 456C299.101 456 270 426.899 270 391C270 355.101 299.101 326 335 326C370.899 326 400 355.101 400 391Z" stroke="url(#customGradient)" stroke-width="20" stroke-linecap="round"/>
</svg>
